<svg xmlns="http://www.w3.org/2000/svg" width="375" viewBox="0 0 375 375" height="375" version="1.0"><defs><clipPath id="a"><path d="M 5 5 L 370 5 L 370 370 L 5 370 Z M 5 5"/></clipPath><clipPath id="b"><path d="M 103.488281 -55.34375 L 430.652344 103.644531 L 271.664062 430.808594 L -55.5 271.820312 Z M 103.488281 -55.34375"/></clipPath><clipPath id="c"><path d="M 103.488281 -55.34375 L 430.652344 103.644531 L 271.664062 430.808594 L -55.5 271.820312 Z M 103.488281 -55.34375"/></clipPath></defs><g clip-path="url(#a)"><g clip-path="url(#b)"><g clip-path="url(#c)"><path fill="#17b21d" d="M 267.070312 24.148438 C 176.871094 -19.683594 67.828125 18.039062 23.996094 108.238281 C -19.839844 198.4375 17.882812 307.480469 108.082031 351.3125 C 198.28125 395.148438 307.328125 357.425781 351.160156 267.226562 C 394.992188 177.027344 357.269531 67.980469 267.070312 24.148438 Z M 165.984375 177.238281 C 158.988281 191.632812 151.597656 228.484375 136.332031 259.890625 C 121.070312 291.300781 106.132812 293.746094 97.625 289.613281 C 89.117188 285.476562 80.855469 274.183594 97.074219 240.8125 C 113.289062 207.441406 136.742188 180.820312 143.738281 166.425781 C 150.734375 152.03125 120.054688 143.59375 137.859375 106.949219 C 153.757812 74.234375 174.890625 44.0625 174.890625 44.0625 C 174.890625 44.0625 179.988281 42.59375 191.773438 45.941406 L 160.667969 109.945312 C 158.914062 113.558594 160.421875 117.914062 164.03125 119.667969 C 167.644531 121.425781 172 119.917969 173.753906 116.304688 L 205.234375 51.527344 C 205.328125 51.335938 205.316406 51.128906 205.386719 50.929688 C 207.113281 51.6875 208.898438 52.5 210.789062 53.417969 C 213.648438 54.808594 216.21875 56.171875 218.609375 57.507812 C 218.523438 57.652344 218.390625 57.742188 218.320312 57.886719 L 186.84375 122.664062 C 185.085938 126.277344 186.59375 130.632812 190.207031 132.390625 C 193.816406 134.144531 198.171875 132.636719 199.929688 129.023438 L 230.839844 65.417969 C 239.699219 72.117188 242.289062 76.8125 242.289062 76.8125 C 242.289062 76.8125 226.871094 123.515625 216.378906 145.109375 C 198.253906 182.40625 172.980469 162.84375 165.984375 177.238281 Z M 211.488281 288.324219 C 201.949219 307.957031 185.960938 332.539062 176.144531 327.769531 C 166.328125 323 170.054688 307.015625 185.316406 275.605469 C 195.492188 254.667969 277.53125 85.851562 277.53125 85.851562 C 302.949219 118.425781 291.988281 155.96875 283.71875 172.980469 C 269.730469 201.769531 238.335938 216.441406 229.113281 235.417969 C 223.707031 246.539062 224.207031 262.152344 211.488281 288.324219 Z M 211.488281 288.324219"/></g></g></g></svg>